<?xml version="1.0" encoding="utf-8"?>
<!-- Generator: Adobe Illustrator 23.0.1, SVG Export Plug-In . SVG Version: 6.00 Build 0)  -->
<svg version="1.1" id="Warstwa_1" xmlns="http://www.w3.org/2000/svg" xmlns:xlink="http://www.w3.org/1999/xlink" x="0px" y="0px"
	 viewBox="0 0 143.1 119.8" style="enable-background:new 0 0 143.1 119.8;" xml:space="preserve">
<style type="text/css">
	.st0{fill-rule:evenodd;clip-rule:evenodd;fill:#E30016;}
	.st1{fill-rule:evenodd;clip-rule:evenodd;fill:#FFEC00;}
</style>
<path class="st0" d="M6.6,52.2C3.5,46.8,7,38.8,12.7,33.8c5.6-5.2,9.1-6.4,13.3-8.8c1,5.5-3.2,9-0.3,14.6c9.5-4,27.3-1.1,28.2-16.2
	C54.1,9,68.9,5.9,80.5,0c-2.1,4.3-8.2,17.4-3.4,19.9c7.6,5,19.7,11.2,22.8,21.8c-4.4-1.6-11-0.7-14.7,0.4c-7.1,2.1-21.3-3-23.8,7.1
	c-1.1,4.8-4.8,8.9-6.6,11.9c15.1-4.7,27.6-8.6,41-9.1c12.3-0.5,30.4,3.8,42.2,15.8c0.6,0.7,1.6,1.2,2.2,2c1.9,2.2,3.3,4.2,2.9,6.4
	c-0.5,2.3-3,5-5.2,7.2c-14.6,14.5-61.9,27.6-69,28.1c-7,0.5-17.1,0.9-21.8,0.9c-9.1,0-18,11.1-38.2-4.9c-2.2-2.1-3.9-4.1-5.8-5.3
	c0.6,0,1.4,0.1,2.2,0.1c2.6-0.2,4.8,0.4,7.5-0.6C-1.9,84.8-3.8,74.9,6.6,52.2"/>
<path class="st1" d="M50.7,60.7c2.5-1.9,5.6-6.2,7.5-12.4C61.5,38,72,40.5,80.3,39.9c4.6-1.1,12.7-2.2,15.1-1.3
	c-3.3-5.7-9.5-9.8-12.6-11.3c-3.8-2.9-9.2-4.8-10.1-8.6c-1-3.8,0.6-8.6,2.4-13.6C64.3,9.8,57.3,15.5,57.4,19.2
	C57.2,31.4,50,39.3,36.9,40.1c-9.3,0.4-20.1,3.6-25.9,10.6C20.9,60.2,37.6,64.9,50.7,60.7"/>
<path class="st1" d="M9.7,53.4c-8.2,14.5-12.2,35.2,6.9,46.7c4.6,2.7,11.8-1.4,16.4-4c4.8-2.7,16.5-4.1,28,0.9
	c1.8,0.5-4.4,7.7-13,11.1c6.1,2.4,11.4,1.6,22,1c3.3-0.2,18.6-3.9,34.1-9.7c10.3-4,20.7-9.1,27.5-14.1c5-3.8,8.5-6.7,9.1-9.7
	c0.3-1.7-0.4-2.9-3.6-5.6c-4.1-3.7-8.8-7-13.3-9.1c-10.1-4.8-20.9-5.6-28.6-5.9c-11.4-0.4-24.9,4.4-39.5,7.7
	C38.8,67.4,25.2,64.7,9.7,53.4"/>
<path class="st0" d="M110.3,74.9c-3,2-5.5,1.5-7.4-1.4s-1.4-5.3,1.6-7.4c3-1.9,5.4-1.5,7.4,1.3C113.8,70.4,113.3,72.9,110.3,74.9"/>
<path class="st0" d="M86.8,72.5c0.2,0,0.3,0,0.4,0c0.1-0.1,0.2-0.1,0.3-0.1c0.4-0.3,0.7-0.5,0.8-1c0.1-0.4,0-0.9-0.3-1.7
	c-0.2-0.6-0.5-1-0.9-1.2c-0.3-0.1-0.7-0.1-1.1,0.1c-0.3,0.1-0.5,0.3-0.5,0.5s0.2,0.7,0.5,1.5l0.3,0.7c0,0.2,0.1,0.3,0.2,0.5
	C86.6,72,86.7,72.2,86.8,72.5 M87.9,74.9L87.9,74.9z M87.9,74.9c0.1,0.1,0.1,0.3,0.3,0.6c0.1,0.3,0.2,0.6,0.2,0.8l0.3,0.6
	c0.3,0.6,0.5,1,0.6,1.1c0.1,0.2,0.3,0.3,0.5,0.4c0.1,0,0.1,0,0.2,0c0.6,0.1,1,0.4,1.1,0.7c0.2,0.5,0.1,0.9-0.4,1.4
	c-0.4,0.4-1.3,0.9-2.7,1.4c-1.4,0.6-2.5,0.9-3.2,1c-0.6,0-1.1-0.2-1.3-0.7c-0.2-0.4,0-0.8,0.4-1.3c0.1-0.1,0.1-0.2,0.2-0.2
	c0.1-0.2,0-0.7-0.2-1.6c-0.4-1-0.8-2.1-1.4-3.6c-0.7-1.8-1.2-3-1.5-3.5c-0.3-0.6-0.5-0.9-0.7-0.9C80.2,71,80,71,79.8,71
	c-0.7-0.1-1-0.3-1.2-0.7c-0.1-0.3,0-0.7,0.3-1.1c0.4-0.4,1-0.7,1.8-1.1c0.1,0,0.4-0.1,0.9-0.3c0.4-0.2,0.8-0.4,1.1-0.5
	c0.5-0.2,1.3-0.5,2.1-0.9c0.8-0.3,1.4-0.6,1.7-0.7c1.7-0.7,3.1-0.9,4.2-0.7c1.2,0.3,2,1,2.5,2.2c0.2,0.6,0.3,1.1,0.2,1.6
	c0,0.6-0.2,1.1-0.5,1.6c-0.1,0.1-0.2,0.2-0.3,0.4c-0.2,0.3-0.4,0.5-0.3,0.6s0.3,0.2,0.7,0.2c0.4-0.1,0.6-0.1,0.8-0.1
	c0.5,0.1,0.9,0.3,1.4,0.6c0.5,0.3,0.9,0.8,1.2,1.3c0.2,0.1,0.3,0.3,0.4,0.6c0.4,0.7,0.7,1,0.9,1c0.1,0,0.2,0,0.3,0
	c0.7,0,1.1,0.2,1.2,0.6c0.2,0.4,0.1,0.9-0.4,1.5c-0.4,0.5-1.2,1-2.2,1.4c-1.1,0.5-2.1,0.6-2.8,0.4c-0.8-0.2-1.6-1-2.4-2.2l-0.2-0.2
	c-1.1-1.5-2.1-2.2-2.8-1.9c-0.1,0-0.2,0.1-0.3,0.2C88,74.8,88,74.8,87.9,74.9z"/>
<path class="st0" d="M68.3,80.6l3.3-0.7c-0.6-0.9-1.1-1.6-1.5-2c-0.4-0.5-0.6-0.7-0.8-0.6c-0.2,0-0.3,0.2-0.4,0.7
	C68.7,78.4,68.5,79.3,68.3,80.6 M62.7,87L62.7,87z M62.7,87c-0.1-0.5,0.1-0.8,0.7-1.2c0.2-0.1,0.2-0.1,0.3-0.2
	c0.4-0.2,0.8-1.4,1.3-3.6c0.1-0.6,0.2-1.2,0.3-1.6c0.1-0.4,0.2-0.9,0.4-1.6c0.6-3,0.9-5,0.9-5.9c0-0.6,0.1-0.9,0.3-1.2
	c0.2-0.2,0.6-0.4,1.2-0.5s1.2-0.2,1.7-0.1c0.4,0.1,0.9,0.3,1.3,0.7c0.5,0.3,1.1,1,1.8,1.9c0.8,0.9,1.8,2.3,3.2,4.2
	c0.3,0.5,0.7,1.1,1.3,2c0.9,1.4,1.6,2.2,1.9,2.4c0.1,0,0.2,0,0.4,0.1c0.7,0,1,0.3,1.1,0.7c0.1,0.6-0.1,1-0.8,1.4
	c-0.6,0.4-1.7,0.8-3.2,1.1c-1.7,0.3-2.9,0.5-3.6,0.4s-1.1-0.4-1.2-0.8c-0.1-0.3-0.1-0.5,0-0.6c0.1-0.2,0.2-0.4,0.4-0.5
	c0.3-0.2,0.5-0.3,0.5-0.4c0.1-0.1,0.1-0.2,0.1-0.4c-0.1-0.3-0.4-0.5-0.9-0.5s-1.3,0.1-2.5,0.3c-0.9,0.2-1.5,0.4-1.8,0.6
	s-0.4,0.4-0.3,0.8c0,0.1,0.1,0.2,0.2,0.3c0.1,0.1,0.3,0.1,0.6,0.1c0.2,0,0.4,0.1,0.6,0.2c0.1,0.2,0.2,0.4,0.2,0.6
	c0.2,0.5,0,0.9-0.6,1.2c-0.4,0.3-1.3,0.6-2.4,0.8c-1,0.3-1.9,0.3-2.4,0.2C63.1,87.8,62.8,87.5,62.7,87z"/>
<path class="st0" d="M40.7,88.3c0-0.4,0.3-0.8,0.8-1.1c0.2-0.1,0.3-0.1,0.4-0.2c0.2-0.2,0.3-0.8,0.4-2c0.1-1.1,0.1-2.6,0.1-4.5
	c0-0.2,0-0.5-0.1-0.9c0-0.4,0-0.6,0-0.8c0-0.6,0-1.1-0.1-1.4s-0.3-0.5-0.5-0.7c-0.1,0-0.2-0.1-0.3-0.2c-0.6-0.3-0.8-0.7-0.8-1.1
	c0-0.5,0.2-0.8,0.7-1.1c0.6-0.3,1.4-0.4,2.5-0.4c0.7-0.1,1.2,0,1.7,0c0.6,0.1,0.9,0.2,1,0.3c0.2,0.1,0.7,0.7,1.4,1.9l0.2,0.3
	c0.3,0.5,0.6,1.2,1.1,2c0.7,1.2,1.1,1.8,1.5,1.8c0.3,0,0.7-0.6,1.2-1.7s0.9-2,1.3-2.8c0.4-0.7,0.9-1.3,1.4-1.6
	c0.5-0.4,1.3-0.5,2.4-0.6c1.2,0,2.1,0.1,2.6,0.3c0.4,0.2,0.7,0.6,0.7,1.1c0,0.4-0.2,0.7-0.6,0.9c-0.1,0.1-0.1,0.1-0.2,0.1
	c-0.2,0.2-0.4,0.7-0.5,1.4c-0.1,0.8-0.1,2-0.1,3.6c0.1,1.5,0.2,2.8,0.2,3.7c0.1,1,0.3,1.6,0.4,1.7c0.1,0,0.1,0.1,0.3,0.2
	c0.5,0.2,0.8,0.6,0.8,1.1s-0.3,0.9-0.9,1.1c-0.6,0.3-1.6,0.4-3.1,0.5c-1.6,0-2.6-0.1-3.2-0.3c-0.6-0.2-0.9-0.6-0.9-1.2
	c0-0.4,0.2-0.7,0.6-1c0.2-0.1,0.3-0.2,0.3-0.2c0.2-0.2,0.3-0.5,0.3-0.9c0.1-0.5,0.1-1.3,0.1-2.5c0-0.3-0.1-0.5-0.2-0.7
	c-0.1-0.1-0.2-0.2-0.4-0.2s-0.5,0.5-0.9,1.3c-0.1,0.4-0.2,0.6-0.3,0.8c-0.2,0.5-0.4,1.1-0.7,1.8c-0.7,1.9-1.3,2.8-1.7,2.8
	s-1-0.9-1.8-2.7c-0.2-0.2-0.3-0.4-0.3-0.6c-0.3-0.5-0.6-1.1-0.9-1.9c-0.4-1-0.7-1.5-1-1.5c-0.2,0-0.3,0.2-0.4,0.5c0,0.3,0,1.1,0,2.4
	c0,0.8,0.1,1.3,0.2,1.5c0,0.2,0.2,0.4,0.4,0.5h0.1c0.6,0.2,0.8,0.6,0.8,1c0.1,0.5-0.1,0.8-0.6,1c-0.4,0.2-1.3,0.3-2.4,0.4
	c-1,0-1.8-0.1-2.3-0.3C41,89,40.7,88.8,40.7,88.3"/>
<path class="st0" d="M33.2,89l-7.3-1c-0.4,0-0.7-0.2-0.9-0.5c-0.2-0.2-0.3-0.6-0.2-1c0-0.4,0.3-0.7,0.8-0.9c0.3-0.2,0.4-0.3,0.5-0.3
	c0.3-0.2,0.4-0.5,0.6-1c0.1-0.4,0.3-1.4,0.5-2.9l0.3-2.8c0.2-1.1,0.3-1.9,0.3-2.3s-0.1-0.7-0.2-0.8c0-0.1-0.2-0.2-0.4-0.3
	c-0.5-0.2-0.8-0.6-0.7-1.2c0-0.5,0.5-0.8,1.3-1c0.8-0.1,1.9-0.1,3.4,0.1c1.4,0.1,2.5,0.4,3.1,0.7c0.7,0.4,1,0.8,1,1.3
	c-0.1,0.5-0.4,0.8-1,1c-0.2,0-0.3,0-0.4,0.1c-0.2,0.1-0.3,0.2-0.4,0.3c-0.1,0.1-0.1,0.2-0.2,0.4c-0.1,0.4-0.2,0.8-0.3,1.5
	c-0.1,0.6-0.2,1.5-0.3,2.7l-0.4,2.2v0.8c-0.2,0.9-0.1,1.5,0,1.7c0.2,0.3,0.6,0.4,1.2,0.5c0.8,0.1,1.4,0.1,1.8-0.1
	c0.4-0.1,0.8-0.5,1-0.9c0.1-0.1,0.1-0.3,0.2-0.4c0.3-0.6,0.6-0.9,1-0.8c0.4,0,0.8,0.2,1,0.6c0.2,0.3,0.3,0.8,0.3,1.3
	c-0.1,0.4-0.3,0.9-0.6,1.6c-0.3,0.6-0.6,1.1-0.9,1.4c-0.2,0.3-0.5,0.4-0.7,0.5s-0.5,0.2-0.7,0.1c0,0-0.1,0-0.2,0
	C35,89.3,34.2,89.1,33.2,89"/>
<path class="st0" d="M16.4,85.6l-8-1.8c-0.3-0.1-0.6-0.3-0.7-0.5c-0.2-0.2-0.2-0.5-0.1-0.8c0.1-0.4,0.3-0.6,0.7-0.8
	c0.5-0.1,0.7-0.2,0.9-0.3c0.2-0.2,0.5-0.8,0.8-1.7s0.7-2.3,1.1-4.1c0.3-1.4,0.5-2.4,0.6-3.1c0.1-0.6,0-1-0.1-1.2
	c0-0.1-0.2-0.3-0.6-0.6c-0.3-0.3-0.4-0.6-0.4-1c0.1-0.4,0.3-0.6,0.7-0.8c0.4,0,0.8,0,1.4,0.1c0.1,0,0.8,0.2,2,0.5s2.4,0.6,3.5,0.8
	c1.8,0.4,3.4,0.7,4.7,0.9c0.1,0,0.2,0,0.2,0c0.6,0.1,0.9,0.5,1.1,1.1c0.3,0.6,0.3,1.4,0,2.3c-0.1,0.6-0.3,1-0.6,1.2
	c-0.3,0.3-0.6,0.4-1,0.3c-0.2-0.1-0.4-0.2-0.5-0.3c-0.2-0.2-0.4-0.5-0.6-1c-0.1-0.4-0.4-0.8-0.8-1.1c-0.4-0.2-0.9-0.4-1.6-0.6
	L18.7,73c-0.9-0.2-1.4-0.2-1.6,0s-0.5,0.9-0.8,2.1c-0.1,0.6-0.1,0.9-0.1,1c0.1,0.2,0.4,0.3,0.8,0.4s0.6,0.1,0.8,0
	c0.1,0,0.3-0.3,0.5-0.7c0.4-0.8,0.8-1.2,1.2-1.1c0.5,0.1,0.8,0.5,0.9,1c0.2,0.6,0.1,1.4-0.1,2.4c-0.3,1.2-0.7,2.2-1,2.7
	c-0.4,0.6-0.9,0.8-1.4,0.7c-0.3-0.1-0.5-0.2-0.5-0.3c-0.2-0.2-0.2-0.5-0.1-1.1c0-0.5,0-0.8-0.1-0.9c-0.1-0.2-0.3-0.3-0.7-0.4
	c-0.3-0.1-0.6-0.1-0.8,0.1c-0.1,0.1-0.3,0.5-0.4,1.1l-0.1,0.2c-0.3,1.2-0.3,1.9-0.1,2.1c0.1,0.3,0.7,0.5,1.7,0.8
	c0.8,0.1,1.5,0.2,2,0.1c0.6-0.1,1-0.3,1.5-0.6c0.1-0.1,0.3-0.3,0.6-0.6c0.5-0.5,0.9-0.7,1.3-0.6s0.7,0.3,0.8,0.6
	c0.2,0.3,0.2,0.6,0.1,1.1c-0.2,0.5-0.4,1.1-0.7,1.6c-0.3,0.5-0.6,1-1,1.4s-0.6,0.6-0.8,0.7c-0.2,0.1-0.4,0.1-0.6,0
	c0,0-0.1,0-0.3-0.1C18.7,86.2,17.6,85.9,16.4,85.6"/>
<path class="st1" d="M110.3,73c1.4-1,1.6-2.1,0.7-3.6c-1.1-1.4-2.3-1.7-3.6-0.9c-1.5,1.1-1.8,2.3-0.8,3.8S108.8,74,110.3,73"/>
</svg>
