<?xml version="1.0" encoding="utf-8"?>
<!-- Generator: Adobe Illustrator 16.0.0, SVG Export Plug-In . SVG Version: 6.00 Build 0)  -->
<!DOCTYPE svg PUBLIC "-//W3C//DTD SVG 1.1//EN" "http://www.w3.org/Graphics/SVG/1.1/DTD/svg11.dtd">
<svg version="1.1" id="Warstwa_1" xmlns="http://www.w3.org/2000/svg" xmlns:xlink="http://www.w3.org/1999/xlink" x="0px" y="0px"
	 width="208px" height="148.968px" viewBox="0 0 208 148.968" enable-background="new 0 0 208 148.968" xml:space="preserve">
<g id="Warstwa_4">
	<path fill="#FFFFFF" d="M4.086,148.968c0,0-8.973-34.916-0.327-56.533c5.778-14.449,11.557-27.611,60.268-40.092
		c31.708-8.124,59.862-14.806,78.729-19.916c20.342-5.511,35.273-14.606,40.092-18.167C189.676,9.217,198.256,0,198.256,0
		s12.586,23.257,9.15,50.165c-2.456,19.276-9.74,44.102-38.434,53.209c-27.49,8.725-62.889,10.219-85.883,14.346
		c-22.993,4.127-48.935,10.219-62.299,15.723C9.16,138.233,4.086,148.968,4.086,148.968z"/>
	<path fill="#FFFFFF" d="M25.162,106.313c-1.073,3.346-8.632,11.131-8.632,11.131S22.08,108.282,25.162,106.313z"/>
	
		<radialGradient id="SVGID_1_" cx="209.875" cy="-34.21" r="118.1917" gradientTransform="matrix(0.7369 0 0 -0.7369 -50.9392 49.8319)" gradientUnits="userSpaceOnUse">
		<stop  offset="0" style="stop-color:#498EC5"/>
		<stop  offset="0.1826" style="stop-color:#4789C0"/>
		<stop  offset="0.404" style="stop-color:#417AB1"/>
		<stop  offset="0.6455" style="stop-color:#366299"/>
		<stop  offset="0.8998" style="stop-color:#284077"/>
		<stop  offset="1" style="stop-color:#213067"/>
	</radialGradient>
	<path fill="url(#SVGID_1_)" d="M4.02,143.532c0,0-7.598-33.674,2.818-52.674c11.037-20.133,33.41-27.906,69.178-36.751
		c35.768-8.843,57.779-11.96,77.629-19.035c19.85-7.075,30.462-14.57,34.981-18.501c4.521-3.931,9.237-10.023,9.237-10.023
		s9.5,18.281,8.058,39.109c-1.432,20.707-11.006,43.768-38.521,52.414c-27.514,8.648-67.605,11.115-90.599,15.242
		c-22.993,4.129-45.595,9.32-57.583,15.148C7.907,133.966,4.02,143.532,4.02,143.532z"/>
	<g>
		<path fill="#192852" d="M143.157,67.079l0.106-0.149c0.472-0.731,0.511-1.565,0.109-2.233c-0.393-0.651-1.104-0.994-1.91-0.927
			c-0.07,0.007-0.145,0.016-0.231,0.031c-0.138,0.022-0.728,0.122-1.524,0.311c0.035-0.252,0.019-0.519-0.044-0.786
			c-0.012-0.051-0.027-0.103-0.043-0.153c0.856,0.519,2.052,0.594,3.349,0.157c2.807-0.947,5.777-4.523,5.239-7.354
			c-0.303-1.592-1.683-2.519-3.51-2.358c-0.448,0.039-0.924,0.143-1.407,0.307c-2.983,1.011-5.519,4.658-5.023,7.232
			c0.043,0.236,0.11,0.455,0.197,0.661c-0.768-0.401-2.009-0.554-3.971-0.186c0.33-0.522,0.68-1.073,1.042-1.646
			c0.653-1.035,1.36-2.146,2.103-3.342c0.357-0.594,0.354-1.328-0.012-1.91c-0.283-0.453-0.868-0.972-2.043-0.869
			c-1.172,0.103-5.873,1.238-7.682,3.695c-1.434,1.953-2.444,4.096-3.723,6.807c-0.141,0.295-0.282,0.599-0.432,0.912
			c-1.497,0.782-3.447,1.973-4.775,3.42c2.52-4.587,5.907-8.992,10.699-14.877c0.893-1.089,0.559-2.024,0.373-2.375
			c-0.365-0.688-1.101-1.072-1.918-1.002c-0.07,0.008-0.149,0.016-0.236,0.031c-1.037,0.186-7.357,1.936-9.063,3.927
			c-3.604,4.19-10.989,15.853-13.112,25.644c-0.059-0.326-0.141-0.633-0.252-0.924c-0.719-1.91-2.244-2.975-4.096-2.869
			c-0.298-0.477-0.793-0.818-1.379-0.916c-1.14-0.192-2.912,0.279-4.822,1.23c-0.143,0.07-0.287,0.145-0.43,0.225
			c3.172-3.889,6.643-9.614,5.217-14.871c-0.646-2.369-2.822-6.244-10.192-5.601c-2.362,0.208-5.146,0.869-8.274,1.974
			c-14.578,5.146-35.025,20.223-32.309,29.715c0.361,1.266,1.553,2.775,2.768,3.516l0.125,0.068c0.37,0.186,0.778,0.268,1.18,0.232
			c0.613-0.055,1.164-0.369,1.506-0.869c0.267-0.389,0.385-0.852,0.346-1.318c0.231-5.67,6.918-12.752,15.021-18.074
			c-5.75,10.602-13.552,26.861-11.555,33.885c1.025,3.613,4.908,5,7.208,4.801c0.351-0.033,0.672-0.1,0.959-0.197
			c0.932-0.318,2.571-1.348,2.115-2.965c-0.861-3.033-0.343-8.131,1.489-14.797c0.162-0.008,0.338-0.016,0.526-0.037l0,0
			c1.073-0.094,2.241-0.332,3.121-0.635c4.427-1.533,9.103-4.215,13.305-7.551c-3.679,5.203-6.136,11.609-4.7,15.357
			c0.932,2.428,3.054,3.682,5.833,3.438l0,0c1.352-0.117,2.849-0.578,4.444-1.367c5.182-2.555,10.429-9.955,12.268-16.033
			c0.012,0.373,0.035,0.743,0.071,1.104c0.589,5.624,2.912,9.048,6.897,10.169l0.154,0.043l0.156,0.016
			c0.162,0.016,0.318,0.016,0.473,0.004c0.684-0.059,1.281-0.412,1.643-0.967c0.396-0.605,0.467-1.396,0.208-2.17l-0.274-0.807
			l-0.232-0.086c-0.468-0.955-1.627-4.047-0.448-9.523c0.979-4.548,2.146-8.211,3.703-11.6c-0.008,0.473,0.142,0.916,0.436,1.277
			c0.523,0.646,1.396,0.881,2.276,0.599c-1.242,3.525-2.201,7.542-2.426,10.479c-0.191,2.519,0.826,5.443,2.535,7.275
			c1.015,1.088,2.556,1.943,4.147,2.322c0.321,0.117,0.684,0.164,1.062,0.129c0.951-0.082,2.039-0.637,2.346-1.689
			c0.229-0.777-0.055-1.607-0.695-2.1c-0.256-0.215-0.932-1.104-1.061-1.469c-0.657-1.856-0.351-3.613-0.079-5.161
			c0.063-0.366,0.122-0.712,0.169-1.03c0.487-3.592,2.496-9.822,4.323-13.506l0.464-0.188c0.731-0.299,1.446-0.593,2.143-0.872
			c-1.875,2.578-4.398,7.637-3.911,13.227c0.534,6.16,4.214,8.67,7.208,8.949c0.143,0.016,0.291,0.016,0.445,0.004l0,0
			c0.864-0.074,1.945-0.625,2.275-1.658c0.232-0.721,0.039-1.479-0.5-2.013C138.361,85.687,134.648,77.741,143.157,67.079z
			 M77.297,74.509c0.531-1.164,1.085-2.843,0.695-4.238c-0.29-1.046-1.096-1.737-1.969-2.135c2.032-1.029,4.076-1.918,6.068-2.617
			c1.989-0.699,3.648-1.112,4.922-1.227c2.531-0.221,2.791,0.735,2.999,1.502c1.438,5.262-7.968,15.816-17.833,20.813
			C73.705,82.411,75.587,78.229,77.297,74.509z M92.822,93.179c-0.271,0.133-0.542,0.223-0.742,0.242
			c-1.021-2.822,1.705-8.474,5.259-11.933c0.259,0.196,0.612,0.366,1.093,0.421c0.047,0.074,0.122,0.205,0.209,0.433
			C99.528,84.684,96.883,91.169,92.822,93.179z"/>
		<path fill="#192852" d="M185.65,55.318c-0.72-1.909-2.244-2.976-4.096-2.87c-0.298-0.475-0.794-0.816-1.379-0.915
			c-1.145-0.192-2.913,0.279-4.827,1.23c-6.8,3.392-14.917,16.709-12.566,22.853c0.933,2.429,3.059,3.682,5.834,3.439
			c1.352-0.119,2.846-0.578,4.445-1.367C180.349,74.095,187.762,60.923,185.65,55.318z M173.018,69.374
			c-0.271,0.135-0.542,0.224-0.738,0.244c-1.022-2.822,1.706-8.475,5.259-11.934c0.26,0.197,0.613,0.365,1.093,0.42
			c0.047,0.072,0.121,0.205,0.208,0.429C179.724,60.881,177.074,67.366,173.018,69.374z"/>
		<path fill="#192852" d="M162.936,76.826c-0.322-0.487-0.943-1.934-1.01-3.589c-0.066-1.65,0.684-3.867,1.407-6.009
			c0.955-2.817,1.854-5.479,1.298-7.712c-0.484-1.941-1.903-2.999-3.782-2.834c-0.66,0.059-1.368,0.264-2.157,0.633
			c-2.186,1.018-4.352,3.117-6.313,5.546c-0.02-0.389-0.138-0.739-0.374-1.077c-0.413-0.589-1.112-0.903-1.866-0.837
			c-0.547,0.047-1.051,0.271-1.75,0.577c-0.231,0.102-0.491,0.217-0.773,0.33c-1.64,0.672-2.921,2.572-4.025,5.975
			c-0.248,0.755-0.503,1.537-0.763,2.336c-2.724,8.281-3.868,12.098-3.388,13.898c0.479,1.8,2.091,2.845,4.115,2.668
			c0.77-0.066,1.553-0.318,2.201-0.711c0.299-0.182,1.19-0.723,1.402-1.773c0.803-3.41,5.086-12.23,8.436-16.391
			c-0.004,0.016-0.008,0.031-0.012,0.047c-0.759,2.579-1.706,5.787-0.998,8.534c0.837,3.267,3.069,4.905,6.288,4.626
			c0.401-0.035,0.747-0.09,1.069-0.145l0.07-0.016c1.172-0.252,1.879-1.399,1.887-2.367
			C163.898,77.806,163.525,77.165,162.936,76.826z"/>
	</g>
	<g>
		<path fill="#00649F" d="M185.104,53.97c-0.724-1.918-2.252-2.986-4.116-2.881c-0.298-0.479-0.797-0.822-1.387-0.92
			c-1.147-0.192-2.925,0.279-4.847,1.234c-6.831,3.408-14.987,16.783-12.624,22.955c0.936,2.441,3.069,3.698,5.855,3.455
			c1.36-0.119,2.861-0.582,4.466-1.371C179.774,72.829,187.223,59.599,185.104,53.97z M172.412,68.089
			c-0.274,0.138-0.546,0.225-0.743,0.244c-1.025-2.834,1.719-8.514,5.283-11.988c0.26,0.199,0.617,0.365,1.101,0.42
			c0.051,0.072,0.126,0.209,0.208,0.434C179.149,59.556,176.492,66.072,172.412,68.089z"/>
		<path fill="#00649F" d="M162.283,75.573c-0.322-0.488-0.947-1.942-1.014-3.605c-0.07-1.658,0.684-3.887,1.415-6.041
			c0.959-2.83,1.862-5.506,1.301-7.742c-0.487-1.951-1.91-3.016-3.797-2.851c-0.665,0.06-1.376,0.268-2.17,0.638
			c-2.196,1.021-4.374,3.131-6.34,5.572c-0.02-0.393-0.138-0.742-0.373-1.084c-0.417-0.594-1.116-0.908-1.88-0.841
			c-0.546,0.047-1.053,0.271-1.756,0.581c-0.232,0.102-0.496,0.216-0.779,0.334c-1.646,0.677-2.932,2.582-4.044,5.998
			c-0.247,0.759-0.507,1.545-0.767,2.342c-2.735,8.318-3.887,12.154-3.403,13.963c0.479,1.805,2.103,2.857,4.131,2.68
			c0.774-0.066,1.56-0.322,2.213-0.715c0.298-0.181,1.198-0.723,1.407-1.781c0.806-3.428,5.109-12.286,8.475-16.465
			c-0.004,0.016-0.008,0.032-0.012,0.048c-0.764,2.59-1.714,5.813-1.007,8.572c0.841,3.278,3.085,4.929,6.321,4.646
			c0.404-0.035,0.75-0.094,1.072-0.148l0.07-0.016c1.176-0.252,1.891-1.408,1.898-2.375
			C163.254,76.56,162.877,75.915,162.283,75.573z"/>
		<path fill="#00649F" d="M142.414,65.777l0.106-0.149c0.472-0.734,0.515-1.572,0.11-2.24c-0.393-0.652-1.112-1.002-1.918-0.931
			c-0.071,0.007-0.15,0.016-0.232,0.031c-0.142,0.022-0.73,0.122-1.533,0.314c0.035-0.257,0.02-0.519-0.047-0.79
			c-0.012-0.052-0.027-0.103-0.043-0.158c0.865,0.52,2.06,0.598,3.36,0.158c2.822-0.951,5.806-4.549,5.263-7.389
			c-0.307-1.602-1.689-2.532-3.525-2.371c-0.452,0.039-0.928,0.141-1.414,0.307c-3,1.014-5.547,4.681-5.047,7.264
			c0.047,0.235,0.109,0.455,0.195,0.66c-0.77-0.4-2.016-0.559-3.989-0.186c0.331-0.525,0.685-1.08,1.046-1.654
			c0.656-1.037,1.363-2.153,2.11-3.356c0.358-0.597,0.354-1.333-0.012-1.918c-0.283-0.456-0.872-0.976-2.056-0.872
			c-1.176,0.102-5.899,1.242-7.712,3.714c-1.438,1.961-2.456,4.111-3.737,6.835c-0.143,0.299-0.287,0.602-0.433,0.916
			c-1.502,0.786-3.463,1.98-4.8,3.436c2.531-4.611,5.936-9.033,10.75-14.944c0.896-1.093,0.563-2.032,0.374-2.386
			c-0.366-0.691-1.104-1.077-1.926-1.006c-0.071,0.008-0.149,0.016-0.239,0.031c-1.043,0.181-7.391,1.941-9.107,3.941
			c-3.621,4.211-11.037,15.924-13.172,25.762c-0.059-0.326-0.142-0.637-0.252-0.928c-0.723-1.918-2.252-2.987-4.115-2.881
			c-0.299-0.479-0.797-0.822-1.387-0.924c-1.148-0.193-2.925,0.279-4.847,1.238c-0.142,0.07-0.287,0.145-0.429,0.227
			c3.184-3.902,6.674-9.656,5.24-14.936c-0.645-2.377-2.834-6.277-10.236-5.628c-2.373,0.208-5.168,0.876-8.313,1.985
			C65.805,62.118,45.264,77.263,47.99,86.794c0.362,1.271,1.561,2.787,2.783,3.531l0.126,0.07c0.374,0.188,0.782,0.266,1.183,0.23
			c0.617-0.055,1.172-0.369,1.514-0.871c0.268-0.391,0.389-0.857,0.346-1.328c0.232-5.696,6.949-12.811,15.094-18.152
			c-5.777,10.648-13.615,26.984-11.611,34.039c1.034,3.627,4.93,5.02,7.24,4.818c0.35-0.031,0.676-0.098,0.963-0.197
			c0.936-0.318,2.583-1.355,2.123-2.979c-0.861-3.051-0.346-8.172,1.493-14.865c0.165-0.008,0.343-0.02,0.53-0.035l0,0
			c1.082-0.096,2.252-0.334,3.137-0.641c4.445-1.541,9.143-4.23,13.368-7.587c-3.694,5.228-6.163,11.667-4.721,15.429
			c0.937,2.439,3.07,3.697,5.86,3.453l0,0c1.36-0.117,2.861-0.58,4.469-1.371c5.205-2.566,10.475-9.998,12.322-16.104
			c0.012,0.377,0.035,0.748,0.075,1.109c0.593,5.652,2.925,9.086,6.929,10.215l0.154,0.043l0.156,0.016
			c0.162,0.016,0.323,0.02,0.477,0.004c0.688-0.059,1.289-0.412,1.65-0.971c0.396-0.609,0.473-1.402,0.209-2.182l-0.275-0.809
			l-0.236-0.086c-0.471-0.961-1.635-4.068-0.447-9.568c0.982-4.566,2.153-8.246,3.718-11.649c-0.008,0.471,0.142,0.919,0.44,1.284
			c0.526,0.649,1.403,0.885,2.283,0.602c-1.25,3.542-2.213,7.578-2.437,10.527c-0.192,2.529,0.829,5.467,2.547,7.311
			c1.022,1.092,2.566,1.957,4.166,2.334c0.327,0.117,0.688,0.164,1.065,0.129c0.955-0.082,2.052-0.641,2.358-1.693
			c0.228-0.781-0.055-1.615-0.704-2.111c-0.255-0.219-0.936-1.107-1.064-1.473c-0.656-1.863-0.35-3.628-0.082-5.182
			c0.063-0.368,0.125-0.715,0.168-1.033c0.488-3.607,2.508-9.865,4.344-13.568l0.467-0.192c0.732-0.304,1.455-0.599,2.154-0.876
			c-1.883,2.59-4.422,7.672-3.93,13.285c0.538,6.186,4.232,8.711,7.244,8.992c0.145,0.016,0.295,0.016,0.443,0.004l0,0
			c0.869-0.074,1.954-0.629,2.287-1.662c0.232-0.723,0.041-1.486-0.498-2.02C137.6,84.472,133.865,76.493,142.414,65.777z
			 M76.256,73.242c0.534-1.168,1.088-2.854,0.699-4.257c-0.291-1.049-1.104-1.745-1.977-2.146c2.039-1.033,4.096-1.926,6.092-2.629
			c2.001-0.703,3.663-1.116,4.944-1.23c2.539-0.221,2.803,0.739,3.015,1.51c1.447,5.29-8.002,15.891-17.915,20.902
			C72.646,81.183,74.538,76.98,76.256,73.242z M91.852,91.995c-0.275,0.133-0.542,0.223-0.742,0.242
			c-1.026-2.838,1.713-8.514,5.286-11.988c0.259,0.197,0.617,0.371,1.101,0.422c0.047,0.074,0.125,0.204,0.209,0.432
			C98.589,83.465,95.928,89.978,91.852,91.995z"/>
	</g>
	<g>
		<path fill="#FFFFFF" d="M97.213,60.298c-1.112-4.106-5.668-6.15-16.225-2.424c-15.365,5.42-33.512,20.045-31.335,27.666
			c0.247,0.865,1.171,1.998,1.989,2.492c0.264,0.131,0.522-0.016,0.447-0.268c0.209-9.311,15.129-21.373,28.32-26.016
			c7.185-2.527,9.531-1.25,10.277,1.498c1.966,7.184-10.84,20.41-22.607,24.605c1.686-5.566,4.253-11.289,6.477-16.124
			c0.617-1.345,0.775-2.417,0.602-3.034c-0.215-0.773-1.233-1.152-1.787-1.238c-0.39-0.031-1.325,0.157-1.42,0.361
			c-5.059,9.068-14.873,28.184-12.864,35.246c0.86,3.025,4.54,3.887,5.903,3.418c0.275-0.094,1.054-0.545,0.979-0.797
			c-1.27-4.492,0.248-11.611,1.898-17.256c0.763,0.295,3.023,0.014,4.402-0.463C85.146,83.501,99.592,69.071,97.213,60.298z
			 M99.029,76.429c-0.673,0.335-1.156,0.748-1.486,1.141c-0.264,0.357-0.275,0.535,0.13,0.559c0.645,0.02,1.219,0.476,1.632,1.572
			c1.297,3.443-2.115,10.844-6.73,13.123c-1.135,0.563-2.629,0.795-3.19-0.676c-1.772-4.652,3.608-13.736,9.186-16.52
			c0.405-0.201,0.361-0.523,0.106-0.565c-0.598-0.104-2.006,0.2-3.75,1.071c-6.372,3.182-13.619,15.838-11.752,20.715
			c1.159,3.023,4.469,2.795,7.864,1.121c6.808-3.361,13.438-15.785,11.765-20.234C102.17,76.061,100.782,75.558,99.029,76.429z
			 M111.092,80.863c2.688-12.507,6.654-18.442,16.32-30.309c0.251-0.304,0.278-0.534-0.091-0.464
			c-1.198,0.189-6.878,1.961-8.065,3.35c-4.371,5.082-14.256,21.385-13.25,30.953c0.57,5.424,2.688,7.85,5.637,8.678
			c0.565,0.055,0.59-0.428,0.467-0.793C111.969,92.231,109.449,88.489,111.092,80.863z M128.359,65.302
			c2.947-1.201,5.923-2.472,8.254-3.088c0.287-0.1,0.551-0.293,0.487-0.543c-0.173-0.701-1.852-1.05-7.217,0.75
			c0.919-1.898,3.03-5.02,5.381-8.816c0.275-0.455-5.224,0.756-6.804,2.901c-1.576,2.142-2.638,4.61-4.256,8.01
			c-3.365,1.667-5.492,3.558-5.83,4.962c-0.125,0.415,0.256,0.396,0.656,0.156c1.089-0.578,2.292-0.947,3.604-1.549
			c-1.847,3.679-3.687,9.934-4.001,14.051c-0.146,1.932,0.652,4.431,2.071,5.951c0.951,1.023,2.354,1.623,3.415,1.848
			c0.366,0.232,1.482-0.234,1.066-0.555c-0.421-0.316-1.38-1.523-1.651-2.291c-0.987-2.791-0.231-5.337,0-7.051
			C124.098,75.863,126.418,68.966,128.359,65.302z M141.582,59.548c2.173-0.73,4.41-3.611,4.079-5.357
			c-0.185-0.975-1.302-1.144-2.61-0.699c-2.177,0.735-4.186,3.545-3.863,5.23C139.404,59.847,140.496,59.913,141.582,59.548z
			 M140.948,63.892c0.177-0.275,0.138-0.483-0.231-0.41c-1.195,0.186-5.161,1.082-6.363,2.406c-1.95,2.225-4.709,7.41-4.23,12.881
			c0.488,5.609,3.707,7.192,5.637,7.365c0.357,0.044,1.125-0.357,0.767-0.656C135.626,84.708,131.83,75.321,140.948,63.892z
			 M162.186,57.851c-0.409-1.628-1.619-1.892-3.475-1.027c-6.427,2.992-13.341,17.512-13.341,17.512s1.945-7.551,3.341-10.527
			c1.969-4.201,1.156-3.359-1.203-2.389c-1.088,0.448-2.103,2.072-3.021,4.896c-1.935,5.951-4.596,13.588-4.143,15.291
			c0.436,1.639,2.467,1.631,3.689,0.892c0.323-0.196,0.547-0.397,0.582-0.616c0.924-3.998,7.386-17.637,11.639-19.764
			c0.59-0.295,0.9-0.215,1.018,0.244c0.496,1.949-2.712,7.7-1.717,11.595c0.998,3.896,3.984,3.416,5.357,3.181
			c0.35-0.075,0.641-0.74,0.377-0.803c-0.515-0.078-1.766-2.425-1.875-5.066C159.241,67.083,163.011,61.144,162.186,57.851z
			 M183.363,53.829c-0.629-1.678-2.021-2.182-3.773-1.309c-0.672,0.334-1.155,0.746-1.486,1.139
			c-0.267,0.359-0.279,0.535,0.13,0.559c0.646,0.02,1.219,0.475,1.632,1.576c1.297,3.439-2.115,10.846-6.729,13.129
			c-1.136,0.562-2.634,0.794-3.191-0.676c-1.772-4.654,3.608-13.742,9.186-16.521c0.405-0.199,0.361-0.522,0.105-0.565
			c-0.597-0.103-2,0.2-3.749,1.073c-6.371,3.18-13.619,15.836-11.753,20.714c1.159,3.022,4.466,2.794,7.865,1.12
			C178.411,70.703,185.037,58.278,183.363,53.829z"/>
	</g>
	<path fill="#192852" d="M49.308,96.507c-0.382-0.361-0.916-0.555-1.501-0.535c-0.688,0.02-1.785,0.072-3.082,0.193
		c-0.279,0.027-0.555,0.055-0.825,0.082c0.954-0.994,1.462-1.744,1.536-1.863c0.342-0.521,0.433-1.104,0.248-1.604
		c-0.161-0.428-0.515-0.758-0.975-0.912l-0.118-0.033c-0.196-0.053-1.101-0.26-2.401-0.279c0.235-1.887-0.393-3.295-0.531-3.574
		c-0.07-0.158-0.172-0.295-0.311-0.416c-0.169-0.15-0.377-0.256-0.617-0.314l-0.113-0.027h-0.012
		c-0.314-0.057-0.684-0.021-1.026,0.09c-0.448,0.137-2.669,0.85-4.747,2.213c-0.685-0.516-1.35-0.754-1.565-0.822l-0.09-0.043
		h-0.075c-0.727-0.152-1.705,0.248-2.299,0.92c-0.091,0.098-0.716,0.814-1.376,1.906c-0.487-0.816-0.963-1.4-1.081-1.545
		c-0.443-0.529-1.359-0.549-2.197-0.059c-0.777,0.461-1.281,1.18-1.281,1.836c0,0.244,0.008,1.316,0.193,2.527
		c-0.484-0.027-0.987-0.02-1.51,0.027c-0.708,0.066-1.188,0.182-1.207,0.186c-0.853,0.207-1.729,0.963-2.036,1.76
		c-0.047,0.119-0.413,1.117-0.507,2.32c-2.351,1.363-4.426,3.387-4.827,3.789c-0.095,0.09-0.181,0.188-0.263,0.285
		c-0.26,0.311-0.452,0.648-0.559,0.979c-0.051,0.15-0.082,0.305-0.094,0.449c-0.016,0.195,0,0.385,0.051,0.551
		c0.09,0.303,0.602,1.854,2.023,2.82c0.048,0.033,0.095,0.064,0.143,0.092c-1.065,1.707-1.604,3.041-1.627,3.105
		c-0.347,0.861-0.221,1.666,0.325,2.098c0.284,0.225,0.649,0.324,1.054,0.283l0.063-0.008c0.059-0.008,1.03-0.133,2.52-0.688
		c-1.297,1.836-2.39,3.541-3.018,4.557c-0.74,1.182-0.768,2.459-0.071,3.113l0.079,0.068c0.307,0.248,0.711,0.363,1.144,0.324
		c0.624-0.061,1.284-0.422,1.858-1.02c0.563-0.588,2.209-2.334,3.962-4.41c-0.142,1.848,0.06,3.059,0.091,3.236
		c0.086,0.467,0.307,0.852,0.641,1.115c0.346,0.275,0.782,0.396,1.258,0.35c0.4-0.035,0.806-0.188,1.199-0.443
		c0.07-0.047,1.646-1.082,3.475-2.943c0.173,0.141,0.354,0.279,0.547,0.408c2.059,1.391,4.555,1.701,5.234,1.76
		c0.17,0.023,0.343,0.029,0.516,0.014l0,0c0.889-0.084,1.745-0.662,2.291-1.545c0.078-0.127,0.146-0.256,0.197-0.363
		c0.498-0.967,2.078-4.256,2.334-7.467c2.182-0.701,3.742-1.695,3.754-1.703c1.199-0.758,1.694-2.197,1.128-3.273
		c-0.035-0.066-0.7-1.32-2.118-2.539c2.271-0.563,4.28-1.246,4.929-1.471c1.077-0.377,1.819-1.328,1.804-2.314
		C49.838,97.269,49.646,96.833,49.308,96.507z"/>
	<path fill="#00649F" d="M47.229,95.983c-0.928,0.029-3.42,0.135-5.979,0.566c1.949-1.607,2.959-3.113,3.021-3.211
		c0.434-0.656,0.232-1.324-0.432-1.51c-0.004,0-0.008,0-0.012-0.004c-0.066-0.016-1.301-0.334-3.062-0.244
		c0.542-2.086-0.188-3.713-0.323-3.984c-0.031-0.07-0.078-0.135-0.137-0.189c-0.087-0.078-0.201-0.133-0.33-0.164l0,0
		c-0.225-0.061-0.503-0.041-0.79,0.051c-0.425,0.131-2.874,0.912-4.987,2.416c-0.791-0.75-1.719-1.025-1.766-1.037
		c-0.004,0-0.004-0.004-0.008-0.004c-0.487-0.133-1.238,0.17-1.701,0.693c-0.028,0.031-1.082,1.211-1.895,2.906
		c-0.587-1.318-1.42-2.354-1.597-2.564c-0.224-0.268-0.778-0.229-1.324,0.094s-0.943,0.844-0.943,1.25
		c0,0.314,0.016,1.84,0.354,3.316c-1.683-0.311-3.317,0.07-3.399,0.092c-0.637,0.152-1.329,0.746-1.557,1.34
		c-0.023,0.059-0.453,1.193-0.484,2.486c-2.405,1.314-4.618,3.477-5.011,3.869c-0.075,0.074-0.149,0.152-0.216,0.236
		c-0.209,0.248-0.358,0.51-0.438,0.754l0,0l0,0c-0.031,0.104-0.055,0.197-0.063,0.291c-0.008,0.109,0,0.209,0.027,0.299
		c0.063,0.221,0.508,1.604,1.754,2.445c0.231,0.156,0.479,0.285,0.742,0.389c-1.293,1.93-1.945,3.541-1.98,3.629
		c-0.236,0.588-0.178,1.076,0.117,1.309c0.15,0.117,0.354,0.168,0.613,0.133c0.118-0.016,2.071-0.287,4.713-1.727
		c-2.027,2.65-3.84,5.492-4.547,6.633c-0.555,0.891-0.637,1.838-0.178,2.26c0.004,0,0.004,0.004,0.004,0.004
		c0.472,0.424,1.364,0.164,2.111-0.613c0.908-0.947,3.34-3.551,5.494-6.285c-0.656,2.994-0.33,5.164-0.275,5.463
		c0.056,0.311,0.193,0.551,0.39,0.703c0.397,0.314,1.019,0.287,1.663-0.129c0.094-0.063,1.879-1.246,3.813-3.324
		c0.283,0.281,0.605,0.549,0.963,0.793c1.945,1.316,4.359,1.6,4.948,1.65c0.735,0.102,1.604-0.361,2.131-1.213
		c0.063-0.104,0.121-0.209,0.169-0.32c0.503-0.975,2.174-4.477,2.291-7.672c2.276-0.656,3.951-1.707,4.041-1.76
		c0.889-0.568,1.281-1.633,0.889-2.379c-0.087-0.164-1.065-1.922-3.121-3.184c2.699-0.566,5.4-1.467,6.313-1.785
		c0.789-0.275,1.355-0.979,1.344-1.658C48.553,96.421,47.99,95.96,47.229,95.983z"/>
	<path fill="#FFFFFF" d="M43.019,93.001c0,0-1.792-0.508-4.116-0.066c1.361-2.398,0.292-4.678,0.284-4.693l0,0l0,0l0,0l0,0l0,0l0,0
		c-0.024,0.008-3.519,1.041-5.542,3.074c-0.684-1.246-2.048-1.668-2.048-1.668s-2.351,2.67-2.366,5.598
		c-0.012,2.275,1.848,3.369,1.863,3.381l0,0l0,0l0,0l0,0l0,0l0,0l0,0l0,0c0.023,0.008,2.373,0.68,5.424-0.57
		C40.794,96.298,43.019,93.001,43.019,93.001z"/>
	<path fill="#FFFFFF" d="M24.451,116.233c0,0,2.547-1.658,4.63-4.473c1.399,2.895,5.954,3.18,6.104,3.189l0,0l0,0l0,0l0,0l0,0l0,0
		c0.102-0.186,2.778-5.135,2.055-8.396c2.795-0.342,5.189-1.852,5.189-1.852s-1.691-3.459-5.861-4.002
		c-2.811-0.365-5.797,1.223-5.828,1.238l0,0l0,0l0,0l0,0l0,0l0,0l0,0l0,0c-0.028,0.02-2.91,2.068-4.6,5.268
		C23.586,112.067,24.451,116.233,24.451,116.233z"/>
	<path fill="#FFFFFF" d="M16.063,109.989c0,0,0.904-2.344,2.787-4.658c-2.547,0.035-3.35-2.566-3.357-2.582l0,0l0,0l0,0l0,0l0,0l0,0
		c0.021-0.02,3.109-3.164,5.783-4.064c-0.362-1.482,0.255-3.152,0.255-3.152s3.207-0.762,5.039,0.975
		c1.423,1.348,0.971,3.9,0.967,3.926l0,0l0,0l0,0l0,0l0,0l0,0l0,0l0,0c-0.008,0.029-1.034,2.885-3.753,5.393
		C19.82,109.478,16.063,109.989,16.063,109.989z"/>
	<path fill="#FFFFFF" d="M27.969,96.052c-1.71-0.838-1.824-5.539-1.824-5.539S28.719,93.815,27.969,96.052z"/>
	<path fill="#FFFFFF" d="M46.91,97.399c0,0-8.137,2.857-10.66,2.008C39.025,97.536,46.91,97.399,46.91,97.399z"/>
	<g>
		<path fill="#00649F" d="M36.03,94.706c-0.585,0.146-1.147,0.344-1.64,0.551c0.322-0.357,0.645-0.742,0.959-1.152
			c1.588-2.055,2.245-3.824,2.245-3.824s-1.813,1.412-3.4,3.432c-0.318,0.402-0.601,0.799-0.856,1.184
			c-0.023-0.385-0.087-0.801-0.232-1.195c-0.444-1.199-1.478-1.74-1.478-1.74s-0.37,1.336,0.039,2.555
			c0.225,0.668,0.638,1.162,0.979,1.488c-0.62,1.07-0.936,1.828-0.936,1.828s0.743-0.594,1.702-1.545
			c0.598,0.025,1.462-0.008,2.465-0.248c1.941-0.467,3.58-1.523,3.58-1.523S37.933,94.239,36.03,94.706z"/>
		<path fill="#00649F" d="M34.926,103.308c-1.073,0.066-2.104,0.365-2.842,0.631c-0.598-0.871-1.12-1.334-1.12-1.334
			s-0.079,0.836,0.023,2.023c-0.634,0.592-1.47,1.467-2.217,2.539c-1.486,2.133-2.083,4.293-2.083,4.293s1.914-1.471,3.396-3.656
			c0.451-0.664,0.805-1.313,1.076-1.887c0.086,0.451,0.196,0.92,0.35,1.395c0.842,2.594,2.512,4.262,2.512,4.262
			s0.126-2.846-0.778-5.357c-0.169-0.469-0.361-0.893-0.562-1.273c0.498,0.09,1.092,0.145,1.761,0.109
			c2.134-0.117,4.106-1.115,4.106-1.115S37.021,103.169,34.926,103.308z"/>
		<path fill="#00649F" d="M26.762,100.579c0,0-0.668-0.125-1.737-0.117c0.008-0.551-0.051-1.279-0.335-1.91
			c-0.518-1.16-1.607-1.594-1.607-1.594s-0.311,1.404,0.174,2.596c0.161,0.389,0.385,0.711,0.621,0.967
			c-0.408,0.039-0.85,0.098-1.309,0.188c-2.359,0.461-4.513,1.549-4.513,1.549s1.62,0.379,4.017-0.078
			c0.468-0.092,0.928-0.201,1.368-0.326c-0.452,0.4-0.943,0.881-1.415,1.418c-1.561,1.781-2.394,3.625-2.394,3.625
			s1.792-1.164,3.36-2.988c0.799-0.926,1.368-1.826,1.733-2.471C25.925,101.003,26.762,100.579,26.762,100.579z"/>
	</g>
	<path fill="#FFFFFF" d="M25.104,106.526c-1.117,3.363-8.82,11.158-8.82,11.158S21.971,108.483,25.104,106.526z"/>
</g>
</svg>
